<svg t="1680492538023" class="icon" viewBox="0 0 1024 1024" version="1.1" xmlns="http://www.w3.org/2000/svg" p-id="6207" width="200" height="200"><path d="M512 108.8c-246.4 0-448 201.6-448 448s201.6 448 448 448 448-201.6 448-448-201.6-448-448-448z m0 832c-211.2 0-384-172.8-384-384 0-214.4 172.8-387.2 384-387.2s387.2 172.8 387.2 387.2c0 211.2-172.8 384-387.2 384zM880 192c6.4 3.2 9.6 6.4 16 6.4 9.6 0 19.2-6.4 25.6-12.8l6.4-9.6c3.2-6.4 6.4-16 6.4-22.4 0-9.6-6.4-16-12.8-19.2L816 60.8c-6.4-3.2-9.6-6.4-16-6.4-9.6 0-19.2 6.4-25.6 12.8l-6.4 9.6c-3.2 6.4-6.4 16-6.4 22.4 0 6.4 6.4 16 12.8 19.2L880 192z m-777.6 6.4c6.4 6.4 16 12.8 25.6 12.8 6.4 0 12.8-3.2 19.2-6.4l96-83.2c12.8-12.8 16-32 3.2-44.8l-3.2-6.4c-6.4-6.4-16-9.6-25.6-9.6-6.4 0-12.8 3.2-19.2 6.4l-96 83.2c-12.8 9.6-16 28.8-3.2 41.6l3.2 6.4z" p-id="6208"></path><path d="M659.2 528H502.4V358.4c0-16-12.8-32-32-35.2h-3.2c-19.2 0-35.2 16-35.2 35.2v236.8h227.2c19.2 0 35.2-16 35.2-35.2 0-16-16-32-35.2-32z" p-id="6209"></path></svg>