<svg t="1685518811898" class="icon" viewBox="0 0 1024 1024" version="1.1" xmlns="http://www.w3.org/2000/svg" p-id="5081" width="200" height="200"><path d="M24.323201 1024C11.567526 1024 1.569835 1011.823009 1.569835 996.284725s9.997691-27.715275 22.753366-27.715275h46.91035V148.783378c0-39.806079 13.432859-77.28511 37.823779-105.542131C133.128126 15.353598 164.89419 0 198.494806 0h278.667179c33.600616 0 65.366679 15.353598 89.437476 43.241247 24.39092 28.318584 37.811466 65.736052 37.811466 105.542131v93.365141h221.094267c33.600616 0 65.366679 15.353598 89.437476 43.241246 24.39092 28.318584 37.811466 65.736052 37.811466 105.542132v577.637553h46.922663c12.755675 0 22.753367 12.176991 22.753366 27.715275s-9.997691 27.715275-22.753366 27.715275z m580.087726-55.405925h302.885726V390.931897c0-51.478261-36.678723-93.352828-81.754521-93.352828h-221.131205zM198.494806 55.405925c-45.088111 0-81.766833 41.862255-81.766834 93.352828v819.810697h442.188534V148.783378C558.916506 97.26818 522.237784 55.405925 477.161985 55.405925z m522.514813 726.433244c-12.767988 0-22.753367-12.176991-22.753367-27.727588S708.303194 726.433244 721.009619 726.433244h69.663717c12.755675 0 22.741054 12.164679 22.741054 27.702962S803.429011 781.839169 790.673336 781.839169z m-487.682955 0c-12.755675 0-22.753367-12.176991-22.753367-27.727588s9.997691-27.702963 22.753367-27.702962H442.354752c12.755675 0 22.741054 12.164679 22.741054 27.702962S455.085802 781.839169 442.354752 781.839169z m487.682955-242.123894c-12.767988 0-22.753367-12.176991-22.753367-27.715275s9.985379-27.715275 22.753367-27.715275h69.663717c12.755675 0 22.741054 12.176991 22.741054 27.715275s-9.985379 27.715275-22.741054 27.715275z m-487.682955 0c-12.755675 0-22.753367-12.176991-22.753367-27.715275s9.997691-27.715275 22.753367-27.715275H442.354752c12.755675 0 22.741054 12.176991 22.741054 27.715275s-9.985379 27.715275-22.741054 27.715275z m0-242.136206c-12.755675 0-22.753367-12.176991-22.753367-27.727588s9.997691-27.702963 22.753367-27.702962H442.354752c12.755675 0 22.741054 12.164679 22.741054 27.702962s-9.985379 27.727588-22.741054 27.727588z" p-id="5082"></path></svg>