<svg t="1685520229375" class="icon" viewBox="0 0 1024 1024" version="1.1" xmlns="http://www.w3.org/2000/svg" p-id="8307" width="200" height="200"><path d="M478.759385 0a159.586462 159.586462 0 0 1 159.586461 159.586462L638.293333 226.067692h226.093949A159.586462 159.586462 0 0 1 1024 385.654154v478.759384A159.586462 159.586462 0 0 1 864.413538 1024H385.654154a159.586462 159.586462 0 0 1-159.586462-159.586462V585.124103H159.586462A159.586462 159.586462 0 0 1 0 425.590154V159.586462A159.586462 159.586462 0 0 1 159.586462 0h319.172923z m385.654153 305.887179l-226.093948-0.026256v119.702974a159.586462 159.586462 0 0 1-159.560205 159.586462l-172.898462-0.026256v279.289435a79.819487 79.819487 0 0 0 75.093333 79.661949l4.726154 0.131282h478.733128a79.819487 79.819487 0 0 0 79.661949-75.093333l0.131282-4.699898V385.654154a79.819487 79.819487 0 0 0-75.093333-79.635692l-4.699898-0.157539z m-119.335384 359.056411a26.25641 26.25641 0 0 1 26.25641 26.25641l-0.026256 53.510564h53.563077a26.25641 26.25641 0 0 1 26.25641 26.25641v0.708923a26.25641 26.25641 0 0 1-26.25641 26.256411l-53.563077-0.026257v53.563077a26.25641 26.25641 0 0 1-26.256411 26.25641h-0.65641a26.25641 26.25641 0 0 1-26.25641-26.25641l-0.026256-53.563077h-53.510565a26.25641 26.25641 0 0 1-26.25641-26.25641v-0.65641a26.25641 26.25641 0 0 1 26.25641-26.25641l53.510565-0.026257v-53.510564a26.25641 26.25641 0 0 1 26.25641-26.25641h0.708923zM478.759385 79.793231H159.586462a79.819487 79.819487 0 0 0-79.661949 75.093333l-0.131282 4.699898v265.977435a79.819487 79.819487 0 0 0 75.093333 79.661949l4.699898 0.131282 66.48123-0.026256v-119.676718a159.586462 159.586462 0 0 1 159.586462-159.586462h172.872205V159.586462a79.819487 79.819487 0 0 0-75.093333-79.661949l-4.673641-0.131282z m79.766974 226.067692h-172.872205a79.819487 79.819487 0 0 0-79.635692 75.093333l-0.157539 4.726154v119.650462h172.898462a79.819487 79.819487 0 0 0 79.661948-75.093334l0.131282-4.673641-0.026256-119.702974z" fill="#000000" p-id="8308"></path></svg>