<svg t="1680760580440" class="icon" viewBox="0 0 1024 1024" version="1.1" xmlns="http://www.w3.org/2000/svg" p-id="4436" width="200" height="200"><path d="M636 928.8c-4 0-8.8 0.8-12.8 2.4-36 9.6-72.8 14.4-112 14.4-112 0-214.4-42.4-291.2-112.8l52.8-52.8-192.8-32 32 193.6 54.4-54.4c90.4 84 212 135.2 345.6 135.2 45.6 0 90.4-6.4 132.8-17.6 16.8-4 29.6-19.2 29.6-36.8 0-22.4-16.8-39.2-38.4-39.2zM94.4 630.4c0-4-0.8-8-1.6-12C84 584 79.2 548.8 79.2 512c0-109.6 40.8-210.4 108.8-286.4l51.2 51.2 32-192.8-193.6 32 56 56C52.8 261.6 3.2 380.8 3.2 512c0 44 5.6 86.4 16 127.2 4 16.8 19.2 28.8 36.8 28.8 20.8 0 38.4-16.8 38.4-37.6zM1020.8 512c0-45.6-6.4-90.4-17.6-132.8-4.8-16-19.2-28-36.8-28-20.8 0-38.4 16.8-38.4 38.4 0 4.8 0.8 8.8 2.4 12.8 9.6 36 14.4 72.8 14.4 109.6 0 111.2-42.4 212.8-111.2 289.6l-52-51.2-32 192.8 193.6-32-56-55.2c83.2-91.2 133.6-212 133.6-344z m-81.6-239.2l-32-193.6-54.4 54.4C762.4 52.8 643.2 3.2 512 3.2c-44 0-87.2 5.6-128 16-1.6 0-3.2 0.8-4 0.8-15.2 4.8-26.4 19.2-26.4 36 0 20.8 16.8 38.4 38.4 38.4 3.2 0 6.4-0.8 9.6-1.6 35.2-9.6 72.8-14.4 110.4-14.4 110.4 0 210.4 40.8 287.2 108.8L746.4 240l192.8 32.8zM671.2 522.4c-4.8-6.4-4.8-15.2 0-21.6l37.6-45.6-4-10.4-4.8-10.4c-3.2-8-6.4-15.2-9.6-20-4.8-10.4-11.2-20-19.2-28l-7.2-6.4-57.6 8c-8.8 0.8-16.8-4.8-20-12.8L568 322.4l-11.2-2.4c-28.8-6.4-57.6-6.4-86.4 0l-9.6 1.6-20 54.4c-3.2 7.2-10.4 11.2-18.4 11.2h-1.6l-56.8-9.6-8 8c-15.2 18.4-27.2 39.2-35.2 61.6l-4 9.6 37.6 45.6c4.8 5.6 4.8 14.4 0 20.8l-39.2 44 4 9.6c3.2 12.8 8.8 24.8 15.2 35.2 4.8 9.6 11.2 18.4 18.4 26.4l7.2 7.2 59.2-9.6c8-0.8 15.2 3.2 18.4 11.2l19.2 54.4 11.2 1.6c28.8 6.4 59.2 6.4 88 0l9.6-2.4 20-56c3.2-7.2 10.4-12 18.4-11.2l57.6 9.6 8-7.2c15.2-17.6 26.4-37.6 34.4-60l4-9.6-36.8-44z m-157.6 72c-45.6 0-82.4-36.8-82.4-82.4s36.8-82.4 82.4-82.4S596 466.4 596 512c0 45.6-36.8 81.6-82.4 82.4z" p-id="4437"></path></svg>