<svg t="1683970757749" class="icon" viewBox="0 0 1024 1024" version="1.1" xmlns="http://www.w3.org/2000/svg" p-id="4121" width="200" height="200"><path d="M538.530909 238.778182c66.094545 0 119.621818-53.387636 119.621818-119.342546A119.575273 119.575273 0 0 0 538.530909 0 119.482182 119.482182 0 0 0 418.909091 119.342545a119.575273 119.575273 0 0 0 119.621818 119.482182zM270.661818 709.632a119.901091 119.901091 0 0 0-163.700363-43.752727 119.296 119.296 0 0 0-43.845819 163.234909 119.901091 119.901091 0 0 0 163.700364 43.752727 119.435636 119.435636 0 0 0 43.845818-163.234909zM940.683636 653.963636a119.808 119.808 0 0 0-163.746909 43.752728 119.342545 119.342545 0 0 0 43.892364 163.234909 119.808 119.808 0 0 0 163.746909-43.752728 119.482182 119.482182 0 0 0-43.892364-163.234909z m-224.628363-437.294545a387.723636 387.723636 0 0 1 208.849454 370.362182c-1.256727 20.061091 13.963636 37.515636 34.164364 38.772363l2.373818 0.093091c19.083636 0 35.234909-14.801455 36.491636-34.071272a459.869091 459.869091 0 0 0-68.002909-272.989091 464.058182 464.058182 0 0 0-179.898181-166.818909 36.584727 36.584727 0 0 0-49.384728 15.499636 36.165818 36.165818 0 0 0 15.406546 49.152zM110.592 623.522909c0.698182 0 1.489455 0 2.187636-0.093091a36.584727 36.584727 0 0 0 34.397091-38.586182 387.490909 387.490909 0 0 1 211.083637-369.245091 36.445091 36.445091 0 1 0-33.512728-64.837818 464.244364 464.244364 0 0 0-181.713454 166.912 460.101818 460.101818 0 0 0-68.887273 271.546182c1.117091 19.269818 17.221818 34.304 36.445091 34.304z m632.552727 267.403636a388.747636 388.747636 0 0 1-207.080727 59.392c-74.286545 0-146.618182-20.945455-208.989091-60.50909a36.491636 36.491636 0 1 0-39.330909 61.579636 462.475636 462.475636 0 0 0 248.32 72.052364 462.056727 462.056727 0 0 0 245.946182-70.609455 36.491636 36.491636 0 1 0-38.865455-61.905455z" fill="#000000" p-id="4122"></path></svg>