<svg t="1680492813995" class="icon" viewBox="0 0 1024 1024" version="1.1" xmlns="http://www.w3.org/2000/svg" p-id="7757" width="200" height="200"><path d="M879 545.3c-17.2-17.2-36.5-31.5-57.4-42.7v-389c0-25.9-21.1-47-47-47H118.9c-25.9 0-47 21.1-47 47v697.5c0 25.9 21.1 47 47 47h387.8c8 11.4 17.1 22.2 27.2 32.3 46.1 46.1 107.4 71.5 172.6 71.5s126.5-25.4 172.6-71.5 71.5-107.4 71.5-172.6-25.5-126.4-71.6-172.5zM141.9 788.2V136.6h609.7V478c-14.8-2.7-29.9-4.2-45.2-4.2-65.2 0-126.5 25.4-172.6 71.5-46.1 46.1-71.5 107.4-71.5 172.6 0 24.2 3.5 47.8 10.2 70.3H141.9z m564.6 103.7c-96 0-174-78.1-174-174s78.1-174 174-174 174 78.1 174 174-78.1 174-174 174z" p-id="7758"></path><path d="M239.9 294.6h322.5c19.3 0 35-15.7 35-35s-15.7-35-35-35H239.9c-19.3 0-35 15.7-35 35s15.6 35 35 35zM239.9 471.1h245.9c19.3 0 35-15.7 35-35s-15.7-35-35-35H239.9c-19.3 0-35 15.7-35 35s15.6 35 35 35zM360.8 576.8h-121c-19.3 0-35 15.7-35 35s15.7 35 35 35h121c19.3 0 35-15.7 35-35s-15.6-35-35-35zM802.6 626.5L682.8 746.4l-40.3-40.3-49.5 49.5 89.8 89.8L852.1 676z" p-id="7759"></path></svg>